<svg width="67" height="86" viewBox="0 0 67 86" fill="none" xmlns="http://www.w3.org/2000/svg">
    <path d="M41.5055 0C48.1563 0 53.5343 1.6381 57.6397 4.91429C61.8272 8.19048 63.921 13.1457 63.921 19.78V24.94C63.921 29.1171 63.0588 32.5162 61.3346 35.1371C59.6924 37.7581 57.3113 39.7238 54.1912 41.0343V41.1571C57.9681 41.9762 61.0472 43.9829 63.4283 47.1771C65.8094 50.2895 67 54.2209 67 58.9714V65.4829C67 72.2809 64.8241 77.4 60.4724 80.84C56.2028 84.28 50.3732 86 42.9835 86H0V0H41.5055ZM42.8603 77.4C47.4583 77.4 51.0711 76.4581 53.6985 74.5743C56.4081 72.6086 57.7629 69.5371 57.7629 65.36V58.6029C57.7629 54.5076 56.4491 51.3952 53.8217 49.2657C51.2763 47.1362 47.8689 46.0714 43.5993 46.0714H9.23713V77.4H42.8603ZM41.9982 37.5943C45.5288 37.5943 48.4847 36.6524 50.8658 34.7686C53.329 32.8029 54.5607 29.8133 54.5607 25.8V20.1486C54.5607 16.2991 53.288 13.4324 50.7426 11.5486C48.2794 9.58286 45.0362 8.6 41.0129 8.6H9.23713V37.5943H41.9982Z"
          fill="#DFE1DE"/>
</svg>
