<svg width="117" height="48" viewBox="0 0 117 48" fill="none" xmlns="http://www.w3.org/2000/svg">
    <path d="M7.90396 20.252C5.83196 20.252 4.15196 19.7013 2.86396 18.6C1.59463 17.4986 0.959961 15.8746 0.959961 13.728V6.72795C0.959961 5.38395 1.24929 4.21728 1.82796 3.22795C2.42529 2.23862 3.24663 1.48262 4.29196 0.95995C5.35596 0.418616 6.55996 0.147949 7.90396 0.147949H10.032C11.3013 0.147949 12.4306 0.390616 13.42 0.87595C14.428 1.34262 15.212 2.01462 15.772 2.89195C16.332 3.76928 16.612 4.77728 16.612 5.91595V6.86795H14.54V6.16795C14.54 5.36528 14.3533 4.66528 13.98 4.06795C13.6253 3.45195 13.1026 2.97595 12.412 2.63995C11.7213 2.28528 10.9 2.10795 9.94796 2.10795H7.84796C6.83996 2.10795 5.97196 2.30395 5.24396 2.69595C4.53463 3.08795 3.99329 3.63862 3.61996 4.34795C3.24663 5.03862 3.05996 5.84128 3.05996 6.75595V13.5879C3.05996 15.1746 3.47996 16.36 4.31996 17.144C5.17863 17.9093 6.37329 18.292 7.90396 18.292H9.97596C10.8906 18.292 11.6933 18.1333 12.384 17.816C13.0746 17.48 13.6066 17.0133 13.98 16.416C14.3533 15.8186 14.54 15.1186 14.54 14.316V13.336H16.612V14.4C16.612 15.5946 16.332 16.6306 15.772 17.5079C15.212 18.3853 14.4373 19.0666 13.448 19.552C12.4586 20.0186 11.32 20.252 10.032 20.252H7.90396Z"
          fill="#DFE1DE"/>
    <path d="M29.6687 0.399949C31.1807 0.399949 32.4034 0.773283 33.3367 1.51995C34.2887 2.26662 34.7647 3.39595 34.7647 4.90795V6.08395C34.7647 7.03595 34.5687 7.81062 34.1767 8.40795C33.8034 9.00528 33.262 9.45328 32.5527 9.75195V9.77995C33.4114 9.96662 34.1114 10.4239 34.6527 11.1519C35.194 11.8613 35.4647 12.7573 35.4647 13.84V15.324C35.4647 16.8733 34.97 18.0399 33.9807 18.8239C33.01 19.6079 31.6847 20 30.0047 20H20.2327V0.399949H29.6687ZM29.9767 18.04C31.022 18.04 31.8434 17.8253 32.4407 17.396C33.0567 16.948 33.3647 16.248 33.3647 15.2959V13.756C33.3647 12.8226 33.066 12.1133 32.4687 11.6279C31.89 11.1426 31.1154 10.9 30.1447 10.9H22.3327V18.04H29.9767ZM29.7807 8.96795C30.5834 8.96795 31.2554 8.75328 31.7967 8.32395C32.3567 7.87595 32.6367 7.19462 32.6367 6.27995V4.99195C32.6367 4.11462 32.3474 3.46128 31.7687 3.03195C31.2087 2.58395 30.4714 2.35995 29.5567 2.35995H22.3327V8.96795H29.7807Z"
          fill="#DFE1DE"/>
    <path d="M37.1047 0.399949H39.4007L44.6647 8.49195H44.7207L50.0407 0.399949H52.2527L46.0367 9.86395L52.8407 20H50.5447L44.6367 11.292H44.6087L38.7287 20H36.5167L43.2647 9.89195L37.1047 0.399949Z"
          fill="#DFE1DE"/>
    <path d="M4.03996 27.4L10.592 39.2999L10.62 39.3279L17.2 27.4H19.636V47H17.592V30.6479H17.564L11.432 41.68H9.80796L3.67596 30.6479H3.64796V47H1.60396V27.4H4.03996Z"
          fill="#DFE1DE"/>
    <path d="M37.5868 27.4V29.3599H26.0788V35.9399H35.9068V37.9H26.0788V45.04H37.6148V47H23.9788V27.4H37.5868Z"
          fill="#DFE1DE"/>
    <path d="M49.7543 27.4C51.1543 27.4 52.377 27.6426 53.4223 28.128C54.4863 28.5946 55.3077 29.3039 55.8863 30.2559C56.4837 31.1893 56.7823 32.3373 56.7823 33.7V40.3639C56.7823 41.7826 56.4837 42.996 55.8863 44.004C55.289 44.9933 54.4583 45.7399 53.3943 46.2439C52.349 46.7479 51.145 47 49.7823 47H41.1583V27.4H49.7543ZM49.5583 45.04C50.6783 45.04 51.621 44.844 52.3863 44.452C53.1517 44.0413 53.721 43.4813 54.0943 42.7719C54.4863 42.0626 54.6823 41.2599 54.6823 40.3639V33.868C54.6823 32.4866 54.2437 31.3946 53.3663 30.5919C52.5077 29.7706 51.2477 29.3599 49.5863 29.3599H43.2583V45.04H49.5583Z"
          fill="#DFE1DE"/>
    <path d="M62.7094 27.4V47H60.6094V27.4H62.7094Z" fill="#DFE1DE"/>
    <path d="M73.4502 47.2519C71.3782 47.2519 69.6982 46.7013 68.4102 45.5999C67.1409 44.4986 66.5062 42.8746 66.5062 40.728V33.728C66.5062 32.384 66.7955 31.2173 67.3742 30.2279C67.9715 29.2386 68.7929 28.4826 69.8382 27.9599C70.9022 27.4186 72.1062 27.1479 73.4502 27.1479H75.5782C76.8475 27.1479 77.9769 27.3906 78.9662 27.8759C79.9742 28.3426 80.7582 29.0146 81.3182 29.892C81.8782 30.7693 82.1582 31.7773 82.1582 32.916V33.868H80.0862V33.1679C80.0862 32.3653 79.8995 31.6653 79.5262 31.068C79.1715 30.452 78.6489 29.9759 77.9582 29.6399C77.2675 29.2853 76.4462 29.1079 75.4942 29.1079H73.3942C72.3862 29.1079 71.5182 29.3039 70.7902 29.6959C70.0809 30.088 69.5395 30.6386 69.1662 31.3479C68.7929 32.0386 68.6062 32.8413 68.6062 33.756V40.588C68.6062 42.1746 69.0262 43.36 69.8662 44.144C70.7249 44.9093 71.9195 45.292 73.4502 45.292H75.5222C76.4369 45.292 77.2395 45.1333 77.9302 44.816C78.6209 44.48 79.1529 44.0133 79.5262 43.416C79.8995 42.8186 80.0862 42.1186 80.0862 41.3159V40.3359H82.1582V41.4C82.1582 42.5946 81.8782 43.6306 81.3182 44.5079C80.7582 45.3853 79.9835 46.0666 78.9942 46.552C78.0049 47.0186 76.8662 47.2519 75.5782 47.2519H73.4502Z"
          fill="#DFE1DE"/>
    <path d="M93.9908 27.4L101.551 47H99.3668L97.2668 41.596H88.0268L85.9548 47H83.8268L91.4148 27.4H93.9908ZM92.7028 29.528H92.6748L88.6708 39.6639H96.5948L92.7028 29.528Z"
          fill="#DFE1DE"/>
    <path d="M106.398 27.4V45.04H116.618V47H104.298V27.4H106.398Z" fill="#DFE1DE"/>
</svg>